<svg width="1313" height="1314" viewBox="0 0 1313 1314" fill="none" xmlns="http://www.w3.org/2000/svg">
<g clip-path="url(#clip0_210_3969)">
<path d="M1313 657C1313 294.149 1019.07 0 656.5 0C293.925 0 0 294.149 0 657C0 1019.85 293.925 1314 656.5 1314C1019.07 1314 1313 1019.85 1313 657Z" fill="#EE2128"/>
<path d="M639.793 231.163L598.665 226.695L629.037 202.013L621.612 167.628L652.743 187.8L683.115 163.117L678.686 204.609L704.628 221.418L670.545 228.908L660.927 267.037L639.793 231.163Z" fill="#FFDB44"/>
<path d="M389.534 464.684L287.542 516.13L321.539 413.238L253.545 344.644H355.537L389.534 241.752L440.53 344.644H525.523L457.529 413.238L491.526 516.13L389.534 464.684Z" fill="#FFDB44"/>
<path d="M639.793 548.175L598.665 552.643L629.037 577.325L621.612 611.71L652.743 591.538L683.115 616.221L678.686 574.729L704.628 557.92L670.545 550.43L660.927 512.301L639.793 548.175Z" fill="#FFDB44"/>
<path d="M739.07 342.75L700.93 326.592L737.034 311.713L739.676 276.623L763.781 304.94L799.886 290.061L783.869 328.537L803.957 352.134L769.174 349.469L749.141 383.226L739.07 342.75Z" fill="#FFDB44"/>
<path d="M739.07 460.514L700.93 476.672L737.034 491.551L739.676 526.641L763.781 498.324L799.886 513.204L783.869 474.727L803.957 451.131L769.174 453.796L749.141 420.039L739.07 460.514Z" fill="#FFDB44"/>
</g>
<defs>
<clipPath id="clip0_210_3969">
<rect width="1313" height="1314" rx="656.5" fill="white"/>
</clipPath>
</defs>
</svg>
