<svg width="1313" height="1314" viewBox="0 0 1313 1314" fill="none" xmlns="http://www.w3.org/2000/svg">
<g clip-path="url(#clip0_210_3976)">
<mask id="mask0_210_3976" style="mask-type:luminance" maskUnits="userSpaceOnUse" x="0" y="0" width="1313" height="1314">
<path d="M1313 657C1313 294.149 1019.07 0 656.5 0C293.925 0 0 294.149 0 657C0 1019.85 293.925 1314 656.5 1314C1019.07 1314 1313 1019.85 1313 657Z" fill="white"/>
</mask>
<g mask="url(#mask0_210_3976)">
<path d="M1313 657C1313 294.149 1019.07 0 656.5 0C293.925 0 0 294.149 0 657C0 1019.85 293.925 1314 656.5 1314C1019.07 1314 1313 1019.85 1313 657Z" fill="white"/>
<path d="M1313 0H0V453.103H1313V0Z" fill="#2171FF"/>
<path d="M482.862 377.623C424.433 377.623 377.072 330.338 377.072 272.076C377.072 213.599 424.43 166.102 482.862 166.102C483.088 166.102 483.307 166.102 483.527 166.105C486.967 166.15 488.173 161.579 485.141 159.951C467.148 150.3 446.616 144.838 424.785 144.997C354.873 145.495 298.085 203.472 298.828 273.438C299.559 342.682 356.125 398.731 425.701 398.731C447.23 398.731 467.475 393.279 485.244 383.761C488.267 382.139 487.045 377.567 483.618 377.616C483.359 377.623 483.111 377.623 482.862 377.623Z" fill="white"/>
<path d="M565.686 348.437L560.962 362.615L546.028 362.728C544.095 362.741 543.293 365.213 544.848 366.362L556.862 375.24L552.356 389.489C551.773 391.334 553.871 392.861 555.446 391.735L567.596 383.044L579.746 391.735C581.32 392.861 583.416 391.334 582.837 389.489L578.33 375.24L590.341 366.362C591.896 365.213 591.094 362.741 589.16 362.728L574.227 362.615L569.503 348.437C568.893 346.602 566.3 346.602 565.686 348.437Z" fill="white"/>
<path d="M670.899 348.437L666.175 362.615L651.242 362.728C649.308 362.741 648.506 365.213 650.062 366.362L662.072 375.24L657.566 389.489C656.983 391.334 659.082 392.861 660.656 391.735L672.806 383.044L684.956 391.735C686.53 392.861 688.626 391.334 688.047 389.489L683.54 375.24L695.551 366.362C697.106 365.213 696.305 362.741 694.37 362.728L679.438 362.615L674.713 348.437C674.102 346.602 671.506 346.602 670.899 348.437Z" fill="white"/>
<path d="M776.109 348.437L771.385 362.615L756.452 362.728C754.518 362.741 753.716 365.213 755.271 366.362L767.286 375.24L762.779 389.489C762.197 391.334 764.295 392.861 765.869 391.735L778.02 383.044L790.169 391.735C791.744 392.861 793.839 391.334 793.26 389.489L788.754 375.24L800.764 366.362C802.319 365.213 801.518 362.741 799.584 362.728L784.651 362.615L779.927 348.437C779.316 346.602 776.72 346.602 776.109 348.437Z" fill="white"/>
<path d="M881.313 348.437L876.589 362.615L861.656 362.728C859.723 362.741 858.92 365.213 860.475 366.362L872.487 375.24L867.979 389.489C867.398 391.334 869.496 392.861 871.071 391.735L883.22 383.044L895.37 391.735C896.945 392.861 899.039 391.334 898.461 389.489L893.954 375.24L905.961 366.362C907.519 365.213 906.722 362.741 904.785 362.728L889.851 362.615L885.128 348.437C884.52 346.602 881.924 346.602 881.313 348.437Z" fill="white"/>
<path d="M986.534 348.437L981.807 362.615L966.875 362.728C964.946 362.741 964.14 365.213 965.698 366.362L977.714 375.24L973.205 389.489C972.625 391.334 974.717 392.861 976.292 391.735L988.444 383.044L1000.6 391.735C1002.17 392.861 1004.26 391.334 1003.68 389.489L999.175 375.24L1011.19 366.362C1012.75 365.213 1011.94 362.741 1010.01 362.728L995.082 362.615L990.355 348.437C989.739 346.602 987.15 346.602 986.534 348.437Z" fill="white"/>
<path d="M670.899 250.167L666.175 264.344L651.242 264.458C649.308 264.47 648.506 266.942 650.062 268.091L662.072 276.97L657.566 291.219C656.983 293.063 659.082 294.591 660.656 293.464L672.806 284.774L684.956 293.464C686.53 294.591 688.626 293.063 688.047 291.219L683.54 276.97L695.551 268.091C697.106 266.942 696.305 264.47 694.37 264.458L679.438 264.344L674.713 250.167C674.102 248.325 671.506 248.325 670.899 250.167Z" fill="white"/>
<path d="M776.109 250.167L771.385 264.344L756.452 264.458C754.518 264.47 753.716 266.942 755.271 268.091L767.286 276.97L762.779 291.219C762.197 293.063 764.295 294.591 765.869 293.464L778.02 284.774L790.169 293.464C791.744 294.591 793.839 293.063 793.26 291.219L788.754 276.97L800.764 268.091C802.319 266.942 801.518 264.47 799.584 264.458L784.651 264.344L779.927 250.167C779.316 248.325 776.72 248.325 776.109 250.167Z" fill="white"/>
<path d="M881.313 250.167L876.589 264.344L861.656 264.458C859.723 264.47 858.92 266.942 860.475 268.091L872.487 276.97L867.979 291.219C867.398 293.063 869.496 294.591 871.071 293.464L883.22 284.774L895.37 293.464C896.945 294.591 899.039 293.063 898.461 291.219L893.954 276.97L905.961 268.091C907.519 266.942 906.722 264.47 904.785 264.458L889.851 264.344L885.128 250.167C884.52 248.325 881.924 248.325 881.313 250.167Z" fill="white"/>
<path d="M986.534 250.167L981.807 264.344L966.875 264.458C964.946 264.47 964.14 266.942 965.698 268.091L977.714 276.97L973.205 291.219C972.625 293.063 974.717 294.591 976.292 293.464L988.444 284.774L1000.6 293.464C1002.17 294.591 1004.26 293.063 1003.68 291.219L999.175 276.97L1011.19 268.091C1012.75 266.942 1011.94 264.47 1010.01 264.458L995.082 264.344L990.355 250.167C989.739 248.325 987.15 248.325 986.534 250.167Z" fill="white"/>
<path d="M776.109 348.437L771.385 362.615L756.452 362.728C754.518 362.741 753.716 365.213 755.271 366.362L767.286 375.24L762.779 389.489C762.197 391.334 764.295 392.861 765.869 391.735L778.02 383.044L790.169 391.735C791.744 392.861 793.839 391.334 793.26 389.489L788.754 375.24L800.764 366.362C802.319 365.213 801.518 362.741 799.584 362.728L784.651 362.615L779.927 348.437C779.316 346.602 776.72 346.602 776.109 348.437Z" fill="white"/>
<path d="M776.109 151.892L771.385 166.07L756.452 166.184C754.518 166.196 753.716 168.669 755.271 169.817L767.286 178.696L762.779 192.945C762.197 194.789 764.295 196.316 765.869 195.191L778.02 186.5L790.169 195.191C791.744 196.316 793.839 194.789 793.26 192.945L788.754 178.696L800.764 169.817C802.319 168.669 801.518 166.196 799.584 166.184L784.651 166.07L779.927 151.892C779.316 150.058 776.72 150.058 776.109 151.892Z" fill="white"/>
<path d="M881.313 348.437L876.589 362.615L861.656 362.728C859.723 362.741 858.92 365.213 860.475 366.362L872.487 375.24L867.979 389.489C867.398 391.334 869.496 392.861 871.071 391.735L883.22 383.044L895.37 391.735C896.945 392.861 899.039 391.334 898.461 389.489L893.954 375.24L905.961 366.362C907.519 365.213 906.722 362.741 904.785 362.728L889.851 362.615L885.128 348.437C884.52 346.602 881.924 346.602 881.313 348.437Z" fill="white"/>
<path d="M986.534 348.437L981.807 362.615L966.875 362.728C964.946 362.741 964.14 365.213 965.698 366.362L977.714 375.24L973.205 389.489C972.625 391.334 974.717 392.861 976.292 391.735L988.444 383.044L1000.6 391.735C1002.17 392.861 1004.26 391.334 1003.68 389.489L999.175 375.24L1011.19 366.362C1012.75 365.213 1011.94 362.741 1010.01 362.728L995.082 362.615L990.355 348.437C989.739 346.602 987.15 346.602 986.534 348.437Z" fill="white"/>
<path d="M881.313 151.892L876.589 166.07L861.656 166.184C859.723 166.196 858.92 168.669 860.475 169.817L872.487 178.696L867.979 192.945C867.398 194.789 869.496 196.316 871.071 195.191L883.22 186.5L895.37 195.191C896.945 196.316 899.039 194.789 898.461 192.945L893.954 178.696L905.961 169.817C907.519 168.669 906.722 166.196 904.785 166.184L889.851 166.07L885.128 151.892C884.52 150.058 881.924 150.058 881.313 151.892Z" fill="white"/>
<path d="M986.534 151.892L981.807 166.07L966.875 166.184C964.946 166.196 964.14 168.669 965.698 169.817L977.714 178.696L973.205 192.945C972.625 194.789 974.717 196.316 976.292 195.191L988.444 186.5L1000.6 195.191C1002.17 196.316 1004.26 194.789 1003.68 192.945L999.175 178.696L1011.19 169.817C1012.75 168.669 1011.94 166.196 1010.01 166.184L995.082 166.07L990.355 151.892C989.739 150.058 987.15 150.058 986.534 151.892Z" fill="white"/>
<path d="M1313 453.104H0V489.352H1313V453.104Z" fill="#FF000E"/>
<path d="M1313 860.896H0V1314H1313V860.896Z" fill="#39CF16"/>
<path d="M1313 824.648H0V860.896H1313V824.648Z" fill="#FF000E"/>
</g>
</g>
<defs>
<clipPath id="clip0_210_3976">
<rect width="1313" height="1314" rx="656.5" fill="white"/>
</clipPath>
</defs>
</svg>
